<svg xmlns="http://www.w3.org/2000/svg" width="166.07" height="82.774" viewBox="-72 -72 124.553 62.08"><g stroke="#000" stroke-miterlimit="10" stroke-width=".4"><g stroke="none"><g stroke="none" font-size="10"><text x="6.617" y="-85.549" font-family="cmmi10" transform="translate(-69.633 24.66)">F</text><text x="14.436" y="-85.549" font-family="cmr10" transform="translate(-69.633 24.66)">(</text><text x="18.325" y="-85.549" font-family="cmmi10" transform="translate(-69.633 24.66)">X</text><text x="27.395" y="-85.549" font-family="cmr10" transform="translate(-69.633 24.66)">)</text></g><g stroke="none" font-size="10"><text x="87.916" y="-85.549" font-family="cmmi10" transform="translate(-69.654 24.66)">G</text><text x="95.779" y="-85.549" font-family="cmr10" transform="translate(-69.654 24.66)">(</text><text x="99.668" y="-85.549" font-family="cmmi10" transform="translate(-69.654 24.66)">X</text><text x="108.737" y="-85.549" font-family="cmr10" transform="translate(-69.654 24.66)">)</text></g><g stroke="none" font-size="10"><text x="6.617" y="-41.23" font-family="cmmi10" transform="translate(-69.112 24.66)">F</text><text x="14.436" y="-41.23" font-family="cmr10" transform="translate(-69.112 24.66)">(</text><text x="18.325" y="-41.23" font-family="cmmi10" transform="translate(-69.112 24.66)">Y</text><text x="26.353" y="-41.23" font-family="cmr10" transform="translate(-69.112 24.66)">)</text></g><g stroke="none" font-size="10"><text x="87.916" y="-41.23" font-family="cmmi10" transform="translate(-69.133 24.66)">G</text><text x="95.779" y="-41.23" font-family="cmr10" transform="translate(-69.133 24.66)">(</text><text x="99.668" y="-41.23" font-family="cmmi10" transform="translate(-69.133 24.66)">Y</text><text x="107.695" y="-41.23" font-family="cmr10" transform="translate(-69.133 24.66)">)</text></g></g><path fill="none" d="M-33.844-63.39h47.2"/><path fill="none" stroke-linecap="round" stroke-linejoin="round" d="M11.477-65.79c.38 1.44 1.226 2.12 2.08 2.4-.854.28-1.7.96-2.08 2.4"/><g stroke="none"><text x="-10.022" y="-41.23" font-family="cmmi7" font-size="7" transform="translate(-5.306 -25.874)">´</text><text x="-5.902" y="-40.224" font-family="cmmi5" font-size="5" transform="translate(-5.306 -25.874)">X</text></g><path fill="none" d="M-50.682-54.53v26.2"/><path fill="none" stroke-linecap="round" stroke-linejoin="round" d="M-48.283-30.21c-1.44.38-2.12 1.227-2.4 2.08-.28-.853-.96-1.7-2.4-2.08"/><g stroke="none" font-size="7"><text x="-10.022" y="-41.23" font-family="cmmi7" transform="translate(-60.095 1.75)">F</text><text x="-3.874" y="-41.23" font-family="cmr7" transform="translate(-60.095 1.75)">(</text><text x="-.749" y="-41.23" font-family="cmmi7" transform="translate(-60.095 1.75)">f</text><text x="3.935" y="-41.23" font-family="cmr7" transform="translate(-60.095 1.75)">)</text></g><path fill="none" d="M30.617-54.53v26.2"/><path fill="none" stroke-linecap="round" stroke-linejoin="round" d="M33.017-30.21c-1.44.38-2.12 1.227-2.4 2.08-.28-.853-.96-1.7-2.4-2.08"/><g stroke="none" font-size="7"><text x="-10.022" y="-41.23" font-family="cmmi7" transform="translate(42.992 1.75)">G</text><text x="-3.796" y="-41.23" font-family="cmr7" transform="translate(42.992 1.75)">(</text><text x="-.671" y="-41.23" font-family="cmmi7" transform="translate(42.992 1.75)">f</text><text x="4.013" y="-41.23" font-family="cmr7" transform="translate(42.992 1.75)">)</text></g><path fill="none" d="M-34.364-19.07h48.241"/><path fill="none" stroke-linecap="round" stroke-linejoin="round" d="M11.998-21.47c.38 1.44 1.226 2.12 2.08 2.4-.854.28-1.7.96-2.08 2.4"/><g stroke="none"><text x="-10.022" y="-41.23" font-family="cmmi7" font-size="7" transform="translate(-5.087 27.526)">´</text><text x="-5.902" y="-40.224" font-family="cmmi5" font-size="5" transform="translate(-5.087 27.526)">Y</text></g></g></svg>